<?xml version="1.0" encoding="utf-8"?>
<!-- Generator: Adobe Illustrator 27.0.1, SVG Export Plug-In . SVG Version: 6.00 Build 0)  -->
<svg version="1.1" xmlns="http://www.w3.org/2000/svg" xmlns:xlink="http://www.w3.org/1999/xlink" x="0px" y="0px"
	 viewBox="0 0 425.2 113.39" style="enable-background:new 0 0 425.2 113.39;" xml:space="preserve">
<style type="text/css">
	.st0{fill:#8F3950;}
	.st1{fill:#E25878;}
	.st2{fill:#FFFFFF;}
</style>
<g id="BG">
</g>
<g id="デザイン">
	<path class="st0" d="M140.68,37.62c-3.13-11.77-10.87-19.69-21.63-24.82c-9.82-4.68-20.36-6.12-33.44-6.4
		c-2.36,0.28-7.05,0.53-11.6,1.42c-13.6,2.65-24.92,9.23-33.22,20.46c-8.13,10.99-11.76,23.25-9.14,36.85
		c4.51,23.4,24.95,40.14,49.08,41.74c11.02,0.73,21.15-2.39,30.32-8.43c13.48-8.87,22.46-21.29,27.98-36.29
		C141.97,54.16,142.9,45.95,140.68,37.62z"/>
	<g>
		<polygon class="st1" points="279.55,40.94 276.27,40.94 288.18,12.94 291.47,12.94 		"/>
		<g>
			<rect x="281.68" y="41.72" class="st2" width="3.28" height="36.31"/>
			<path class="st2" d="M249.55,79.27c-13.81,0-25.04-11.23-25.04-25.04c0-13.81,11.23-25.04,25.04-25.04s25.04,11.23,25.04,25.04
				C274.59,68.04,263.36,79.27,249.55,79.27z M249.55,37.25c-9.36,0-16.98,7.62-16.98,16.98c0,9.36,7.62,16.98,16.98,16.98
				c9.36,0,16.98-7.62,16.98-16.98C266.53,44.87,258.91,37.25,249.55,37.25z"/>
			<path class="st2" d="M372.37,79.32c-13.83,0-25.08-11.25-25.08-25.08c0-13.83,11.25-25.08,25.08-25.08
				c13.83,0,25.08,11.25,25.08,25.08C397.45,68.07,386.2,79.32,372.37,79.32z M372.37,32.79c-11.83,0-21.45,9.62-21.45,21.45
				s9.62,21.45,21.45,21.45c11.83,0,21.45-9.62,21.45-21.45S384.19,32.79,372.37,32.79z"/>
			<path class="st2" d="M173.15,37.62c1.86-0.83,4.33-0.58,4.33-0.58c5.17,0,9.37,4.2,9.37,9.37v31.62h8.06V46.41
				c0-5.17,4.2-9.37,9.37-9.37s9.37,4.2,9.37,9.37v31.62h8.06V46.41c0-9.61-7.82-17.43-17.43-17.43c-5.38,0-10.2,2.45-13.4,6.3
				c-3.2-3.84-8.02-6.3-13.4-6.3c-2.51,0-5.23,0.73-8.29,2.03c0,0-7.07,3.18-9.14,3.18v43.84h8.06V39.62
				C169.45,39.43,173.15,37.62,173.15,37.62z"/>
			<path class="st2" d="M301.26,35c1.61-1.1,3.55-1.74,5.64-1.74c5.52,0,10.01,4.49,10.01,10.01v34.76h3.64V43.27
				c0-5.52,4.49-10.01,10.01-10.01c5.52,0,10.01,4.49,10.01,10.01v34.76h3.64V43.27c0-7.53-6.12-13.65-13.65-13.65
				c-5.05,0-9.47,2.76-11.83,6.86c-2.36-4.09-6.78-6.86-11.83-6.86c-2.96,0-5.71,0.95-7.95,2.56c0,0-3.6,2.88-5.7,2.43v43.42h3.64
				v-40.6C299.08,36.61,301.26,35,301.26,35z"/>
		</g>
		<g>
			<path class="st2" d="M210.91,101.4h-1.94v2.77c1.55-0.15,3.1-0.33,3.83-0.47v1.12c-1.3,0.29-5.47,0.68-7.27,0.78v-1.17
				c0.54-0.03,1.27-0.08,2.09-0.15v-2.88h-1.65c-0.31,1.91-1.04,3.27-2.31,4.15v-1.92c0.77-0.86,1.21-2.22,1.21-5.08v-1.82h13.9
				v1.01h-12.58v0.9c0,0.62-0.02,1.22-0.07,1.79h12.68v0.98h-6.4c0.6,0.72,1.4,1.35,2.31,1.84l1.53-1.4h1.56l-2,1.89
				c0.9,0.37,1.92,0.62,3,0.75v1.19C215.35,105.36,212.53,103.73,210.91,101.4z M204.79,95.85v-4.59h3.93v-0.81h1.35v0.81h2.56
				v-0.81h1.35v0.81h3.91v4.59H204.79z M208.83,92.18h-2.72v0.98h2.72V92.18z M208.83,93.94h-2.72v1.03h2.72V93.94z M206.84,99.51
				v-0.86h10.92v0.86H206.84z M212.67,92.18h-2.66v0.98h2.66V92.18z M212.67,93.94h-2.66v1.03h2.66V93.94z M216.55,92.18h-2.69v0.98
				h2.69V92.18z M216.55,93.94h-2.69v1.03h2.69V93.94z"/>
			<path class="st2" d="M221.37,105.23V90.76h14.29v14.47H221.37z M234.39,91.92h-11.75v12.14h11.75V91.92z M223.31,95.81V94.9h4.53
				v-1.08h-3.89v-0.86h3.89v-0.78h1.37v0.78h3.91v0.86h-3.91v1.08h4.55v0.91H223.31z M228.35,99.94v3.86h-1.22v-3.29
				c-1.04,1.04-2.41,2.04-3.75,2.53v-1.3c1.24-0.46,2.64-1.53,3.36-2.38H224v-2.77h9.08v2.77h-3.94c0.41,0.57,0.91,1.08,1.5,1.53
				l1.01-1.04h1.3l-1.52,1.58c0.65,0.39,1.35,0.7,2.07,0.91v1.14C231.53,103,229.6,101.61,228.35,99.94z M231.75,97.36h-6.47v1.19
				h6.47V97.36z"/>
			<path class="st2" d="M247.25,101.32c-1.94,1.68-4.77,2.92-8.75,3.57v-1.47c7.85-1.32,10.52-5.07,10.83-10.35h-10.46v-1.42h12.06
				c0,3.14-0.51,6.13-2.62,8.59c1.32,1.29,3.06,2.35,4.19,2.79v1.68C251.01,104.14,248.96,102.9,247.25,101.32z"/>
			<path class="st2" d="M261.77,96.43v8.67h-1.45v-8.33c-1.19,0.21-2.59,0.37-4.24,0.54l-3.21,0.33v-1.5l2.77-0.26
				c7.66-0.72,9.37-1.87,10.08-4.79h1.66C266.9,93.83,265.41,95.49,261.77,96.43z"/>
			<path class="st2" d="M267.35,98.31v-1.5h12.92v1.5H267.35z"/>
			<path class="st2" d="M283.24,98.24l-0.26-4.07c-0.08-1.29-0.2-2.22-0.34-2.85h1.43c0.16,0.67,0.26,1.48,0.34,2.79l0.26,4.14
				H283.24z M296.1,94.27c-0.57,8.83-6.73,10.49-12.66,10.61v-1.43c5.25-0.1,10.74-1.34,11.23-9.51c0.05-1.03,0.07-1.68,0.07-2.67
				h1.47C296.19,91.98,296.14,93.39,296.1,94.27z M287.97,98.24l-0.28-4.07c-0.08-1.29-0.2-2.22-0.34-2.85h1.45
				c0.15,0.67,0.24,1.48,0.33,2.79l0.28,4.14H287.97z"/>
			<path class="st2" d="M300.77,99.12v-1.94h2.13v1.94H300.77z"/>
			<path class="st2" d="M311.59,98.26v1.92c0,2.82,0.73,3.14,3.63,3.14h6.32v1.4h-6.47c-3.88,0-4.94-0.88-4.94-4.32v-2.15h-2.59
				v-1.4h2.59v-3.73h-2.59v-1.4h14.01v1.4h-9.97v3.73h9.97v1.4H311.59z"/>
			<path class="st2" d="M332.8,96.43v8.67h-1.45v-8.33c-1.19,0.21-2.59,0.37-4.24,0.54l-3.21,0.33v-1.5l2.77-0.26
				c7.66-0.72,9.37-1.87,10.08-4.79h1.66C337.94,93.83,336.45,95.49,332.8,96.43z"/>
			<path class="st2" d="M344.5,98.26v1.92c0,2.82,0.73,3.14,3.63,3.14h6.32v1.4h-6.47c-3.88,0-4.94-0.88-4.94-4.32v-2.15h-2.59v-1.4
				h2.59v-3.73h-2.59v-1.4h14.01v1.4h-9.97v3.73h9.97v1.4H344.5z"/>
		</g>
	</g>
	<g>
		<g>
			<g>
				<g>
					<circle class="st2" cx="78.43" cy="53.11" r="3.27"/>
					<circle class="st2" cx="71.89" cy="64.7" r="2.21"/>
					<circle class="st2" cx="83.04" cy="65" r="2.38"/>
					<circle class="st2" cx="75.46" cy="73.33" r="1.34"/>
					<circle class="st2" cx="88.99" cy="50.73" r="1.34"/>
					<circle class="st2" cx="65.35" cy="75.11" r="1.89"/>
				</g>
				<path class="st2" d="M104.2,36.83l-4.01-2.03c-0.19,0.51-0.46,0.94-0.8,1.28c-1.36,1.35-3.68,1.13-3.7,1.13l0.02,0l0,0.02
					c-4.24-0.81-8.3-0.76-12.08,0.13c-3.31,0.78-6.4,2.2-9.2,4.22c-4.63,3.36-6.88,7.26-7.07,7.61c-2.83,4.98-5.67,13.31-5.99,14.28
					c-1.34,3.17-3.44,5.82-6.25,7.87c-1.91,1.4-3.53,2.04-3.89,2.17c-1.47,0.37-2.18,1.22-2.52,1.87c-0.54,1.06-0.4,2.21-0.09,2.94
					c0.06,0.15,0.14,0.29,0.24,0.42c3.67,5.14,9.57,7.83,17.08,7.83c0.29,0,0.58,0,0.87-0.01c5.75-0.16,10.4-1.79,10.59-1.86
					c0.02-0.01,0.05-0.02,0.07-0.03c4.26-1.69,7.94-4.25,10.95-7.61c2.39-2.67,4.35-5.84,5.83-9.42c2.35-5.68,2.73-10.57,2.77-11.33
					c0.77-6.35,0.55-13.32,0.5-14.72c1.49-0.2,3.41-0.77,4.98-2.31C103.22,38.59,103.79,37.77,104.2,36.83z M92.58,55.86
					c-0.01,0.06-0.01,0.11-0.01,0.16c0,0.05-0.26,4.7-2.5,10.06c-1.29,3.08-2.98,5.8-5.03,8.07c-2.52,2.8-5.61,4.93-9.17,6.35
					c-0.39,0.13-4.46,1.49-9.29,1.6c-5.71,0.13-10.09-1.44-13.06-4.69c2.41-1.05,8.74-4.44,12.01-12.29
					c0.02-0.05,0.04-0.1,0.06-0.15c0.03-0.09,2.94-8.77,5.67-13.58c0.01-0.01,0.01-0.01,0.01-0.02c0.07-0.12,2-3.46,5.94-6.27
					c2.3-1.64,4.85-2.79,7.56-3.41c2.6-0.6,5.37-0.71,8.28-0.35c0,0.08,0,0.15,0,0.23C93.05,41.64,93.38,49.27,92.58,55.86z"/>
			</g>
			<path class="st2" d="M126.12,43.14c-0.04-0.1-0.22-0.73-0.31-1.05c-0.6-2.08-1.71-5.95-3.71-9.49c-2.65-4.69-5.99-7.21-9.91-7.5
				c-6.04-0.46-7.91,3.24-8.43,4.84c-0.63,1.91-0.51,4.11,0.31,5.98c-1.96,0.83-3.6,2.41-4.42,4.31c-0.65,1.51-1.65,5.42,2.97,9.11
				c2.05,1.63,4.38,2.25,6.75,2.25c5.5,0,11.24-3.34,14.2-5.06c0.4-0.23,1.22-0.71,1.32-0.75c0.55-0.15,1-0.53,1.24-1.04l0.04-0.1
				C126.36,44.15,126.34,43.59,126.12,43.14z M107.28,39.18c0.89,0.12,1.73-0.38,2.07-1.24c0.31-0.84-0.02-1.8-0.78-2.28
				c-1.11-0.7-1.69-2.94-1.17-4.52c0.54-1.65,2.06-2.39,4.5-2.21c2.57,0.19,4.88,2.07,6.86,5.57c1.72,3.04,2.74,6.51,3.31,8.48
				l-0.46,0.27c-3.55,2.07-11.86,6.9-16.6,3.11c-1.79-1.43-2.46-3.03-1.88-4.5l0.04-0.1c0.63-1.46,2.31-2.6,3.75-2.6
				C107.04,39.16,107.16,39.17,107.28,39.18z"/>
		</g>
		<g>
			<path class="st2" d="M78.5,28.94c0.2,1.72,0.57,4.93,1.68,7.98c0.39,1.08,0.85,2.04,1.36,2.88c0.92-0.49,1.89-0.9,2.88-1.21
				c-0.5-0.76-0.96-1.66-1.34-2.72c-0.96-2.63-1.31-5.51-1.5-7.14l0.4-0.15c3.08-1.17,10.28-3.9,13.53-0.28
				c1.23,1.37,1.54,2.72,0.89,3.8l-0.04,0.07c-0.69,1.07-2.17,1.75-3.31,1.56c-0.09-0.02-0.19-0.04-0.28-0.07
				c-0.68-0.22-1.42,0.07-1.8,0.71c-0.35,0.63-0.22,1.43,0.32,1.91c0.39,0.35,0.63,0.99,0.69,1.69c1.07,0.16,2.1,0.42,3.09,0.76
				c0.04-0.69-0.02-1.39-0.19-2.06c1.66-0.4,3.16-1.43,4.06-2.83c0.71-1.11,2.02-4.07-1.15-7.59c-1.4-1.56-3.16-2.36-5.04-2.67
				c-4.35-0.72-9.32,1.16-11.89,2.13c-0.34,0.13-1.06,0.4-1.15,0.42c-0.45,0.05-0.86,0.29-1.12,0.66l-0.05,0.07
				c-0.22,0.37-0.28,0.81-0.16,1.2C78.41,28.15,78.47,28.68,78.5,28.94z"/>
		</g>
	</g>
</g>
<g id="レイヤー_2">
</g>
</svg>
